<svg width="22" height="22" viewBox="0 0 22 22" fill="none" xmlns="http://www.w3.org/2000/svg">
<path d="M8.75937 17.5272C3.91851 17.5272 0 13.6009 0 8.76359C0 3.92628 3.92439 0 8.75937 0C13.5943 0 17.5187 3.92628 17.5187 8.76359C17.5187 13.6009 13.6002 17.5213 8.75937 17.5272ZM8.75937 1.85734C4.95248 1.85734 1.86232 4.94899 1.86232 8.75771C1.86232 12.5664 4.95248 15.6581 8.75937 15.6581C12.5663 15.6581 15.6564 12.5664 15.6564 8.75771C15.6564 4.94899 12.5663 1.86322 8.75937 1.85734Z" fill="#717171"/>
<path d="M21.0674 22C20.8206 22 20.5798 21.9001 20.4094 21.7296L13.6416 14.9586C13.2773 14.5942 13.2773 14.0005 13.6416 13.6361C14.0058 13.2717 14.5992 13.2717 14.9634 13.6361L21.7312 20.4072C22.0896 20.7716 22.0896 21.3593 21.7312 21.7296C21.5491 21.906 21.3141 22 21.0674 22Z" fill="#717171"/>
</svg>
